<?xml version="1.0" encoding="UTF-8"?>
<svg version="1.1" viewBox="0 0 384.36102 300.0907" xmlns="http://www.w3.org/2000/svg" xmlns:xlink="http://www.w3.org/1999/xlink">
 <defs>
  <linearGradient id="b" x1="-201.22" x2="-200.69" y1="765.2" y2="785.44" gradientUnits="userSpaceOnUse">
   <stop stop-opacity=".3858" offset="0"/>
   <stop stop-opacity="0" offset="1"/>
  </linearGradient>
  <linearGradient id="a">
   <stop stop-color="#606060" offset="0"/>
   <stop stop-color="#121212" offset="1"/>
  </linearGradient>
  <linearGradient id="f" x1="-155.16" x2="-162.71" y1="738.94" y2="720.36" gradientUnits="userSpaceOnUse">
   <stop stop-color="#d1d1d1" offset="0"/>
   <stop stop-color="#fff" offset="1"/>
  </linearGradient>
  <linearGradient id="g" x1="-211.84" x2="-211.05" y1="758.5" y2="766.12" gradientUnits="userSpaceOnUse">
   <stop stop-opacity=".4173" offset="0"/>
   <stop stop-opacity="0" offset="1"/>
  </linearGradient>
  <linearGradient id="c" x1="-224.72" x2="-199.02" gradientUnits="userSpaceOnUse" xlink:href="#a"/>
  <linearGradient id="d" x1="-185.7" x2="-162.6" gradientUnits="userSpaceOnUse" xlink:href="#a"/>
  <linearGradient id="e" x1="-185.51" x2="-162.51" gradientUnits="userSpaceOnUse" xlink:href="#a"/>
 </defs>
 <g transform="matrix(1.7979 0 0 1.7979 498.7 -1242.8)">
  <path d="m-152.68 826.39-124.18 5.18-0.0282 4.878 125.23 21.186 87.521-23.832 0.0108-3.9283z" fill="#dcdcdc" stroke="#000"/>
  <path d="m-151.82 851.98 0.10316 5.3707 87.477-23.577v-3.7594l-69.025 16.625z" fill-opacity=".6"/>
  <path d="m-153.08 821.49-124.21 10.058 125.63 20.924 87.955-22.564z" fill="#fff" stroke="#000"/>
  <path d="m-235.61 750.42 83.246-10.127v102.48l-83.246-11.428z" fill="#fff" stroke="#000" stroke-linecap="round" stroke-linejoin="round"/>
  <path d="m-189.24 769.01 0.26278 17.344 29.695-0.26278-0.10885-18.857z" fill="#cd0003" stroke="#000"/>
  <path d="m-230.73 770.39 34.562-2.1369-0.30593 57.422-34.256-3.2312z" fill="#fff" stroke="#000" stroke-linecap="round" stroke-linejoin="round"/>
  <path d="m-152.45 843.05h34.563l54.294-12.862-27.475-2.6831-61.047 1.8192z" fill-opacity=".25"/>
  <path d="m-90.579 750.37-61.691-9.825v102.41l61.691-12.961z" fill="#e0e0e0" stroke="#000" stroke-linecap="round" stroke-linejoin="round"/>
  <path d="m-188.88 789.81 29.545 0.23227-0.0929 51.703-29.359-4.3202z" fill="#fff" stroke="#000" stroke-linecap="round" stroke-linejoin="round"/>
  <path d="m-236.01 766.39 0.26163 26.541 82.939 0.78835 0.26164-33.899z" fill="url(#b)"/>
  <path d="m-227.62 772.02 28.383-1.3936-0.0464 51.843-28.662-2.6014z" fill="#fff" stroke="#000" stroke-linecap="round" stroke-linejoin="round"/>
  <path d="m-224.46 772.67v46.64l25.178 2.044-0.0232-49.903z" fill="url(#c)" stroke="#000"/>
  <path d="m-185.44 794.32 22.577 0.46455-0.0272 23.232-22.364-1.6517z" fill="url(#d)" stroke="#000" stroke-linecap="round" stroke-linejoin="round"/>
  <path d="m-185.07 818.56 22.298 1.7493v15.069l-22.484-2.4621z" fill="url(#e)" stroke="#000" stroke-linecap="round" stroke-linejoin="round"/>
  <path d="m-189.55 814.36 2.7719 0.1314 0.0657 5.6946-2.8098-0.24024z" fill="#fff" stroke="#000" stroke-linecap="round" stroke-linejoin="round"/>
  <path d="m-235.81 750.29-23.822 12.32 0.15528 9.3222 91.582-5.3008 17.237 0.85212-0.061-26.71-1.6482-0.55608z" fill="#fff" stroke="#000"/>
  <path d="m-230.38 749.66-21.613 12.12 0.0231 9.6706 7.1416-0.37892-0.11612-9.9102 21.863-12.368z" fill="#ff0104" stroke="#000"/>
  <path d="m-215.73 747.94-18.8 12.304 0.0464 10.259 8.4091-0.51828-0.10749-10.452 19.216-12.721z" fill="#ff0104" stroke="#000"/>
  <path d="m-200.61 746.07-17.964 12.845-0.0929 10.623 8.4091-0.44861 1e-3 -10.977 17.235-12.998z" fill="#ff0104" stroke="#000"/>
  <path d="m-186.68 744.26-15.911 13.216 0.0232 11.186 9.3673-0.62576 0.10156-11.381 15.998-13.491z" fill="#ff0104" stroke="#000"/>
  <path d="m-169.56 742.22-14.469 13.663 0.0305 11.705 9.2134-0.68087v-11.86l14.848-13.983z" fill="#ff0104" stroke="#000"/>
  <path d="m-152.64 740.71-14.029 14.029-0.0206 11.505 15.525 0.75454-0.13139-25.692z" fill="#ff0104" stroke="#000"/>
  <path d="m-234.8 714.11 82.983-22.346v47.819l-82.983 10.121z" fill="url(#f)" stroke="#000" stroke-linecap="round" stroke-linejoin="round"/>
  <path d="m-148.78 693.48-2.7103-1.1634v47.819l2.8961 0.64395z" fill="#dadada" stroke="#000" stroke-linecap="round" stroke-linejoin="round"/>
  <path d="m-148.28 718.5 10.22 24.342h2.7872l-13.193-30.846z" fill="#dadada" stroke="#000"/>
  <path d="m-190.01 838.56-18.876 3.2217 34.897 5.4975 14.756-4.363z" fill="#cd0003" stroke="#000"/>
  <path d="m-259.66 762.44 92.237-7.6207 0.78835 10.511-92.763 5.7812z" fill="url(#g)"/>
  <path d="m-171.5 795.1-7.4894 21.548 2.5622 0.32848 7.4893-21.811z" fill="#fff" fill-opacity=".1759"/>
  <path d="m-167.89 795.36-7.2923 21.483 1.9709 0.26278 7.0295-21.877z" fill="#fff" fill-opacity=".1759"/>
  <path d="m-209.43 771.02-15.027 48.72 2.0103 0.18777 15.388-49.054z" fill="#fff" fill-opacity=".1759"/>
  <path d="m-205.92 770.96-15.113 49.064 1.0183 0.10424 15.205-49.269z" fill="#fff" fill-opacity=".1759"/>
  <path d="m-172.78 819.7-5.7812 13.834 1.8395 0.40496 5.9783-14.197z" fill="#fff" fill-opacity=".1759"/>
  <path d="m-169.69 819.86-5.7812 13.989 1.0511 0.29769 5.847-14.239z" fill="#fff" fill-opacity=".1759"/>
  <path d="m-210.72 710.06c-1.6725 0.50253-2.9477 1.6738-3.8211 3.5207-0.81595 1.6838-1.2232 3.771-1.2215 6.2508 7.8e-4 1.1576 2e-3 2.3152 3e-3 3.4728 1e-3 1.3898 0.50702 2.8204 1.5121 4.3176 0.17061 0.2687 1.0982 1.4545 2.7835 3.581 1.0028 1.2721 1.4955 2.2633 1.4763 2.9651l-0.0612 2.3576c-0.0384 1.3746-0.34833 2.1088-0.93432 2.1936-0.73724 0.10682-1.1066-0.8345-1.1066-2.8284 1e-5 -0.68009 3e-5 -1.3602 4e-5 -2.0403 1e-5 -0.72-0.0971-1.0641-0.28638-1.0317s-0.7234 0.15663-1.6128 0.36379c-0.87052 0.20353-1.401 0.31556-1.5902 0.34783-0.18924 0.0323-0.29741 0.3357-0.31593 0.91081-0.0182 0.98351-0.0289 1.6948-0.0286 2.1305-0.036 2.5652 0.45423 4.578 1.4565 6.0576 0.94493 1.3908 2.0819 2.0204 3.4226 1.8594 1.5484-0.18586 2.7529-1.0584 3.604-2.604 0.85156-1.5561 1.2752-3.5812 1.278-6.0811l3e-3 -2.9414c2e-3 -1.4488-0.49352-3.0248-1.4953-4.7074-0.94595-1.3123-1.895-2.6092-2.842-3.8973-1.0044-1.375-1.5096-2.481-1.5096-3.3398 3e-5 -0.72079 5e-5 -1.4416 8e-5 -2.1624 7e-5 -1.8284 0.3711-2.8373 1.1115-3.0176 0.26579-0.0647 0.47556 0.17607 0.62722 0.72541 0.17062 0.51773 0.24529 1.0791 0.22609 1.6703-0.0576 1.6054-0.0729 2.7224-0.0542 3.3606-1.7e-4 0.41901 0.12326 0.60749 0.36977 0.55439 1.5169-0.24212 2.5461-0.46336 3.0961-0.66663 0.2086-0.0733 0.31744-0.33207 0.31791-0.7579 2e-3 -1.4056 3e-3 -2.8112 5e-3 -4.2168 3e-3 -2.2426-0.37805-3.9445-1.1366-5.1085-0.81586-1.2246-1.907-1.6327-3.2754-1.2388m20.888-5.2711c-1.3873 0.36927-2.4284 1.2157-3.1163 2.5358-0.84036 1.5918-1.2676 4.0132-1.2778 7.2657-0.0218 6.9082-0.0435 13.816-0.0653 20.725-8e-3 2.596 0.31413 4.426 0.95259 5.5102 0.67564 1.1758 1.7953 1.6832 3.3624 1.4973 3.021-0.35829 4.5385-3.136 4.5622-8.3289l0.1002-22.022c0.0149-3.2764-0.40958-5.4595-1.2777-6.5281-0.67968-0.83407-1.7579-1.049-3.2402-0.65449m7.152-1.8911c-0.2554 0.0738-0.4789 0.14906-0.67376 0.21644-0.32322 0.11707-0.4854 0.34399-0.48703 0.68584-0.0409 12.276-0.0819 24.553-0.12293 36.832-2e-3 0.37307 0.12025 0.56079 0.36558 0.56244 1.34-0.0358 2.3464-0.15607 3.008-0.36106 0.20787-0.0565 0.3099-0.33619 0.3126-0.84074 0.0683-5.7446 0.11375-10.062 0.12905-12.933 3e-3 -0.44156 0.12677-0.6747 0.37284-0.71769 1.0221-0.17853 1.9775-0.81616 2.8725-1.8992 1.2193-1.501 1.8358-3.4214 1.85-5.7683 0.0234-3.8581 0.0467-7.7162 0.07-11.574 0.0109-1.8004-0.48991-3.1743-1.5087-4.0953-0.92458-0.87317-1.9493-1.1469-3.0705-0.84898-1.3109 0.27781-2.3515 0.52021-3.1177 0.74169m-13.108 3.5236c-1.2543 0.33362-2.2709 0.62714-3.0502 0.89282-0.13296 6e-3 -0.19716 0.21364-0.19811 0.62323-0.0114 4.857-0.0209 8.8999-0.0285 12.118-1e-3 0.46817-0.11029 0.75678-0.31896 0.85922-0.64502 0.33994-1.1764 0.45719-1.5931 0.37058-0.0947-9e-3 -0.1469-0.0953-0.16549-0.26538-0.0188-0.083-0.0297-0.25233-0.0292-0.51341-0.0349-1.5289-0.0306-3.6814 0.0128-6.4457 0.0452-3.6354 0.0638-5.4374 0.0637-5.4084 1e-3 -0.46416-0.13734-0.67355-0.42234-0.62688l-3.1105 0.82626c-0.19004 0.0505-0.28035 0.31678-0.281 0.80217-0.17141 14.879-0.17089 25.877 9e-3 33.017 0.0181 0.62603 0.16666 0.94074 0.44987 0.93522 0.79291 0.0193 1.5906-0.11049 2.384-0.37914 0.49113-0.1462 0.74142-0.47975 0.76135-1.004 0.0864-5.4621 0.12898-9.9733 0.11719-13.538 0.0198-0.43852 0.10621-0.67763 0.25769-0.70539 0.83326-0.21084 1.3416-0.30406 1.5308-0.28036 0.22709 0.0169 0.34989 0.21966 0.36794 0.59665l-0.0621 13.57c-2e-3 0.76081 0.12035 1.1099 0.36591 1.051 0.15113-0.0475 0.53134-0.0934 1.1355-0.13673 0.54753-0.0364 0.99119-0.13061 1.3314-0.28998 0.35903-0.13233 0.53497-0.42299 0.53627-0.86802 3e-3 -0.83072 0.0516-6.1533 0.13704-15.956 0.0839-9.2134 0.11329-15.375 0.0845-18.482 2e-3 -0.53426-0.0952-0.78363-0.28512-0.76281m15.68 1.824c0.0178-8e-3 0.0415-0.018 0.0605-0.0147 0.20849 0.0123 0.34691 0.0161 0.42285-2e-3 0.18968-0.0145 0.38815-0.0378 0.59681-0.0569 0.20795 0.1078 0.36659 0.5195 0.47645 1.2217 0.12755 0.92059 0.17895 2.4417 0.14814 4.5728-0.0326 2.4482-0.16491 4.065-0.39637 4.8406-0.13493 0.43875-0.43171 0.72919-0.88681 0.88332-0.15211 0.12503-0.27564 0.16836-0.37004 0.12413-0.18882-0.0883-0.27746-0.27558-0.27595-0.55923 5e-3 -4.4708 0.0115-7.883 0.0241-10.246-0.018-0.18445-2e-3 -0.36849 0.0557-0.53989 0.0433-0.12853 0.0912-0.1984 0.14465-0.22323m-9.6055 3.208c0.5315-0.12752 0.79017 0.70586 0.78299 2.5039-0.0247 6.1696-0.0493 12.339-0.0739 18.509-6e-3 1.5543-0.27051 2.3689-0.79987 2.4471-0.3214 0.0475-0.55235-0.0379-0.68378-0.26072-0.13133-0.25277-0.19239-0.87666-0.18866-1.8757 0.0229-6.1288 0.0457-12.258 0.0686-18.386 7e-3 -1.8164 0.30618-2.7958 0.89464-2.937" fill="#982828"/>
 </g>
</svg>
